<mxfile host="app.diagrams.net" agent="Mozilla/5.0 (Windows NT 10.0; Win64; x64) AppleWebKit/537.36 (KHTML, like Gecko) Chrome/129.0.0.0 Safari/537.36 Edg/129.0.0.0" version="24.8.4">
  <diagram name="Page-1" id="KsjHXl2YVPpxj1R9CsqA">
    <mxGraphModel dx="1295" dy="713" grid="1" gridSize="10" guides="1" tooltips="1" connect="1" arrows="1" fold="1" page="1" pageScale="1" pageWidth="850" pageHeight="1100" math="0" shadow="0">
      <root>
        <mxCell id="0" />
        <mxCell id="1" parent="0" />
        <mxCell id="zU1JhyjE3Wgpx7H7E9p--1" value="" style="group" vertex="1" connectable="0" parent="1">
          <mxGeometry x="125" y="40" width="610" height="1000" as="geometry" />
        </mxCell>
        <mxCell id="7wbKg8VlVfDrXnFOL2-x-4" value="" style="rounded=0;whiteSpace=wrap;html=1;" parent="zU1JhyjE3Wgpx7H7E9p--1" vertex="1">
          <mxGeometry x="40" width="530" height="1000" as="geometry" />
        </mxCell>
        <mxCell id="ChbJoj3AliQwtU1PFQZ8-2" value="Organization System" style="text;html=1;align=center;verticalAlign=middle;whiteSpace=wrap;rounded=0;" parent="zU1JhyjE3Wgpx7H7E9p--1" vertex="1">
          <mxGeometry x="247.81249999999997" width="114.375" height="42.857142857142854" as="geometry" />
        </mxCell>
        <mxCell id="zU1JhyjE3Wgpx7H7E9p--61" style="rounded=0;orthogonalLoop=1;jettySize=auto;html=1;exitX=1;exitY=0.5;exitDx=0;exitDy=0;entryX=0;entryY=0.5;entryDx=0;entryDy=0;dashed=1;" edge="1" parent="zU1JhyjE3Wgpx7H7E9p--1" source="zU1JhyjE3Wgpx7H7E9p--12" target="zU1JhyjE3Wgpx7H7E9p--35">
          <mxGeometry relative="1" as="geometry" />
        </mxCell>
        <mxCell id="zU1JhyjE3Wgpx7H7E9p--62" value="&lt;font style=&quot;font-size: 8px;&quot;&gt;&amp;lt;&amp;lt;include&amp;gt;&amp;gt;&lt;/font&gt;" style="edgeLabel;html=1;align=center;verticalAlign=middle;resizable=0;points=[];" vertex="1" connectable="0" parent="zU1JhyjE3Wgpx7H7E9p--61">
          <mxGeometry x="0.0573" relative="1" as="geometry">
            <mxPoint as="offset" />
          </mxGeometry>
        </mxCell>
        <mxCell id="zU1JhyjE3Wgpx7H7E9p--12" value="&lt;font style=&quot;font-size: 10px;&quot;&gt;Request pop of city vs. rural report&lt;/font&gt;" style="ellipse;whiteSpace=wrap;html=1;" vertex="1" parent="zU1JhyjE3Wgpx7H7E9p--1">
          <mxGeometry x="112" y="40.86" width="125" height="40" as="geometry" />
        </mxCell>
        <mxCell id="zU1JhyjE3Wgpx7H7E9p--14" value="&lt;font style=&quot;font-size: 10px;&quot;&gt;Request pop of countries report&lt;/font&gt;" style="ellipse;whiteSpace=wrap;html=1;" vertex="1" parent="zU1JhyjE3Wgpx7H7E9p--1">
          <mxGeometry x="114" y="269" width="125" height="40" as="geometry" />
        </mxCell>
        <mxCell id="zU1JhyjE3Wgpx7H7E9p--15" value="&lt;font style=&quot;font-size: 10px;&quot;&gt;Request pop of cities report&lt;/font&gt;" style="ellipse;whiteSpace=wrap;html=1;" vertex="1" parent="zU1JhyjE3Wgpx7H7E9p--1">
          <mxGeometry x="114" y="386" width="125" height="40" as="geometry" />
        </mxCell>
        <mxCell id="zU1JhyjE3Wgpx7H7E9p--23" value="&lt;font style=&quot;font-size: 10px;&quot;&gt;Request top n pop countries report&lt;/font&gt;" style="ellipse;whiteSpace=wrap;html=1;" vertex="1" parent="zU1JhyjE3Wgpx7H7E9p--1">
          <mxGeometry x="113" y="501" width="125" height="40" as="geometry" />
        </mxCell>
        <mxCell id="zU1JhyjE3Wgpx7H7E9p--25" value="&lt;font style=&quot;font-size: 10px;&quot;&gt;Request pop of cap. cities report&lt;/font&gt;" style="ellipse;whiteSpace=wrap;html=1;" vertex="1" parent="zU1JhyjE3Wgpx7H7E9p--1">
          <mxGeometry x="113" y="731" width="125" height="40" as="geometry" />
        </mxCell>
        <mxCell id="zU1JhyjE3Wgpx7H7E9p--26" value="&lt;font style=&quot;font-size: 10px;&quot;&gt;Request top n pop cap. cities report&lt;/font&gt;" style="ellipse;whiteSpace=wrap;html=1;" vertex="1" parent="zU1JhyjE3Wgpx7H7E9p--1">
          <mxGeometry x="116" y="846" width="125" height="40" as="geometry" />
        </mxCell>
        <mxCell id="zU1JhyjE3Wgpx7H7E9p--27" value="&lt;font style=&quot;font-size: 10px;&quot;&gt;View report&lt;/font&gt;" style="ellipse;whiteSpace=wrap;html=1;" vertex="1" parent="zU1JhyjE3Wgpx7H7E9p--1">
          <mxGeometry x="112" y="88" width="125" height="40" as="geometry" />
        </mxCell>
        <mxCell id="zU1JhyjE3Wgpx7H7E9p--29" value="&lt;font style=&quot;font-size: 10px;&quot;&gt;View report&lt;/font&gt;" style="ellipse;whiteSpace=wrap;html=1;" vertex="1" parent="zU1JhyjE3Wgpx7H7E9p--1">
          <mxGeometry x="114" y="317" width="125" height="40" as="geometry" />
        </mxCell>
        <mxCell id="zU1JhyjE3Wgpx7H7E9p--30" value="&lt;font style=&quot;font-size: 10px;&quot;&gt;View report&lt;/font&gt;" style="ellipse;whiteSpace=wrap;html=1;" vertex="1" parent="zU1JhyjE3Wgpx7H7E9p--1">
          <mxGeometry x="114" y="436" width="125" height="40" as="geometry" />
        </mxCell>
        <mxCell id="zU1JhyjE3Wgpx7H7E9p--31" value="&lt;font style=&quot;font-size: 10px;&quot;&gt;View report&lt;/font&gt;" style="ellipse;whiteSpace=wrap;html=1;" vertex="1" parent="zU1JhyjE3Wgpx7H7E9p--1">
          <mxGeometry x="113" y="551" width="125" height="40" as="geometry" />
        </mxCell>
        <mxCell id="zU1JhyjE3Wgpx7H7E9p--33" value="&lt;font style=&quot;font-size: 10px;&quot;&gt;View report&lt;/font&gt;" style="ellipse;whiteSpace=wrap;html=1;" vertex="1" parent="zU1JhyjE3Wgpx7H7E9p--1">
          <mxGeometry x="113" y="781" width="125" height="40" as="geometry" />
        </mxCell>
        <mxCell id="zU1JhyjE3Wgpx7H7E9p--34" value="&lt;font style=&quot;font-size: 10px;&quot;&gt;View report&lt;/font&gt;" style="ellipse;whiteSpace=wrap;html=1;" vertex="1" parent="zU1JhyjE3Wgpx7H7E9p--1">
          <mxGeometry x="116" y="896" width="125" height="40" as="geometry" />
        </mxCell>
        <mxCell id="zU1JhyjE3Wgpx7H7E9p--64" style="rounded=0;orthogonalLoop=1;jettySize=auto;html=1;exitX=0;exitY=0.5;exitDx=0;exitDy=0;entryX=1;entryY=0.5;entryDx=0;entryDy=0;dashed=1;" edge="1" parent="zU1JhyjE3Wgpx7H7E9p--1" source="zU1JhyjE3Wgpx7H7E9p--35" target="zU1JhyjE3Wgpx7H7E9p--27">
          <mxGeometry relative="1" as="geometry" />
        </mxCell>
        <mxCell id="zU1JhyjE3Wgpx7H7E9p--65" value="&lt;font style=&quot;font-size: 8px;&quot;&gt;&amp;lt;&amp;lt;include&amp;gt;&amp;gt;&lt;/font&gt;" style="edgeLabel;html=1;align=center;verticalAlign=middle;resizable=0;points=[];" vertex="1" connectable="0" parent="zU1JhyjE3Wgpx7H7E9p--64">
          <mxGeometry x="0.0266" relative="1" as="geometry">
            <mxPoint as="offset" />
          </mxGeometry>
        </mxCell>
        <mxCell id="zU1JhyjE3Wgpx7H7E9p--35" value="&lt;font style=&quot;font-size: 10px;&quot;&gt;Generate report&lt;/font&gt;" style="ellipse;whiteSpace=wrap;html=1;" vertex="1" parent="zU1JhyjE3Wgpx7H7E9p--1">
          <mxGeometry x="355" y="64" width="125" height="40" as="geometry" />
        </mxCell>
        <mxCell id="zU1JhyjE3Wgpx7H7E9p--73" style="rounded=0;orthogonalLoop=1;jettySize=auto;html=1;exitX=1;exitY=0.5;exitDx=0;exitDy=0;endArrow=none;endFill=0;" edge="1" parent="zU1JhyjE3Wgpx7H7E9p--1" source="zU1JhyjE3Wgpx7H7E9p--52">
          <mxGeometry relative="1" as="geometry">
            <mxPoint x="595" y="460" as="targetPoint" />
          </mxGeometry>
        </mxCell>
        <mxCell id="zU1JhyjE3Wgpx7H7E9p--52" value="&lt;font style=&quot;font-size: 10px;&quot;&gt;Generate report&lt;/font&gt;" style="ellipse;whiteSpace=wrap;html=1;" vertex="1" parent="zU1JhyjE3Wgpx7H7E9p--1">
          <mxGeometry x="355" y="178" width="125" height="40" as="geometry" />
        </mxCell>
        <mxCell id="zU1JhyjE3Wgpx7H7E9p--53" value="&lt;font style=&quot;font-size: 10px;&quot;&gt;Generate report&lt;/font&gt;" style="ellipse;whiteSpace=wrap;html=1;" vertex="1" parent="zU1JhyjE3Wgpx7H7E9p--1">
          <mxGeometry x="355" y="293" width="125" height="40" as="geometry" />
        </mxCell>
        <mxCell id="zU1JhyjE3Wgpx7H7E9p--54" value="&lt;font style=&quot;font-size: 10px;&quot;&gt;Generate report&lt;/font&gt;" style="ellipse;whiteSpace=wrap;html=1;" vertex="1" parent="zU1JhyjE3Wgpx7H7E9p--1">
          <mxGeometry x="355" y="411" width="125" height="40" as="geometry" />
        </mxCell>
        <mxCell id="zU1JhyjE3Wgpx7H7E9p--55" value="&lt;font style=&quot;font-size: 10px;&quot;&gt;Generate report&lt;/font&gt;" style="ellipse;whiteSpace=wrap;html=1;" vertex="1" parent="zU1JhyjE3Wgpx7H7E9p--1">
          <mxGeometry x="355" y="526" width="125" height="40" as="geometry" />
        </mxCell>
        <mxCell id="zU1JhyjE3Wgpx7H7E9p--56" value="&lt;font style=&quot;font-size: 10px;&quot;&gt;Generate report&lt;/font&gt;" style="ellipse;whiteSpace=wrap;html=1;" vertex="1" parent="zU1JhyjE3Wgpx7H7E9p--1">
          <mxGeometry x="355" y="641" width="125" height="40" as="geometry" />
        </mxCell>
        <mxCell id="zU1JhyjE3Wgpx7H7E9p--57" value="&lt;font style=&quot;font-size: 10px;&quot;&gt;Generate report&lt;/font&gt;" style="ellipse;whiteSpace=wrap;html=1;" vertex="1" parent="zU1JhyjE3Wgpx7H7E9p--1">
          <mxGeometry x="355" y="756" width="125" height="40" as="geometry" />
        </mxCell>
        <mxCell id="zU1JhyjE3Wgpx7H7E9p--58" value="&lt;font style=&quot;font-size: 10px;&quot;&gt;Generate report&lt;/font&gt;" style="ellipse;whiteSpace=wrap;html=1;" vertex="1" parent="zU1JhyjE3Wgpx7H7E9p--1">
          <mxGeometry x="355" y="871" width="125" height="40" as="geometry" />
        </mxCell>
        <mxCell id="zU1JhyjE3Wgpx7H7E9p--69" style="rounded=0;orthogonalLoop=1;jettySize=auto;html=1;exitX=1;exitY=0.5;exitDx=0;exitDy=0;dashed=1;" edge="1" parent="zU1JhyjE3Wgpx7H7E9p--1" source="zU1JhyjE3Wgpx7H7E9p--13">
          <mxGeometry relative="1" as="geometry">
            <mxPoint x="238" y="174.5" as="sourcePoint" />
            <mxPoint x="356" y="198" as="targetPoint" />
          </mxGeometry>
        </mxCell>
        <mxCell id="zU1JhyjE3Wgpx7H7E9p--70" value="&lt;font style=&quot;font-size: 8px;&quot;&gt;&amp;lt;&amp;lt;include&amp;gt;&amp;gt;&lt;/font&gt;" style="edgeLabel;html=1;align=center;verticalAlign=middle;resizable=0;points=[];" vertex="1" connectable="0" parent="zU1JhyjE3Wgpx7H7E9p--69">
          <mxGeometry x="0.0573" relative="1" as="geometry">
            <mxPoint as="offset" />
          </mxGeometry>
        </mxCell>
        <mxCell id="zU1JhyjE3Wgpx7H7E9p--76" style="rounded=0;orthogonalLoop=1;jettySize=auto;html=1;exitX=1;exitY=0.5;exitDx=0;exitDy=0;dashed=1;entryX=0;entryY=0.5;entryDx=0;entryDy=0;" edge="1" parent="zU1JhyjE3Wgpx7H7E9p--1" source="zU1JhyjE3Wgpx7H7E9p--14" target="zU1JhyjE3Wgpx7H7E9p--53">
          <mxGeometry relative="1" as="geometry">
            <mxPoint x="247.81" y="293" as="sourcePoint" />
            <mxPoint x="365.81" y="317" as="targetPoint" />
          </mxGeometry>
        </mxCell>
        <mxCell id="zU1JhyjE3Wgpx7H7E9p--77" value="&lt;font style=&quot;font-size: 8px;&quot;&gt;&amp;lt;&amp;lt;include&amp;gt;&amp;gt;&lt;/font&gt;" style="edgeLabel;html=1;align=center;verticalAlign=middle;resizable=0;points=[];" vertex="1" connectable="0" parent="zU1JhyjE3Wgpx7H7E9p--76">
          <mxGeometry x="0.0573" relative="1" as="geometry">
            <mxPoint as="offset" />
          </mxGeometry>
        </mxCell>
        <mxCell id="zU1JhyjE3Wgpx7H7E9p--78" style="rounded=0;orthogonalLoop=1;jettySize=auto;html=1;entryX=1;entryY=0.5;entryDx=0;entryDy=0;dashed=1;exitX=0;exitY=0.5;exitDx=0;exitDy=0;" edge="1" parent="zU1JhyjE3Wgpx7H7E9p--1" source="zU1JhyjE3Wgpx7H7E9p--53" target="zU1JhyjE3Wgpx7H7E9p--29">
          <mxGeometry relative="1" as="geometry">
            <mxPoint x="364.81" y="319" as="sourcePoint" />
            <mxPoint x="247.81" y="341" as="targetPoint" />
          </mxGeometry>
        </mxCell>
        <mxCell id="zU1JhyjE3Wgpx7H7E9p--79" value="&lt;font style=&quot;font-size: 8px;&quot;&gt;&amp;lt;&amp;lt;include&amp;gt;&amp;gt;&lt;/font&gt;" style="edgeLabel;html=1;align=center;verticalAlign=middle;resizable=0;points=[];" vertex="1" connectable="0" parent="zU1JhyjE3Wgpx7H7E9p--78">
          <mxGeometry x="0.0266" relative="1" as="geometry">
            <mxPoint as="offset" />
          </mxGeometry>
        </mxCell>
        <mxCell id="zU1JhyjE3Wgpx7H7E9p--99" style="rounded=0;orthogonalLoop=1;jettySize=auto;html=1;exitX=1;exitY=0.5;exitDx=0;exitDy=0;dashed=1;entryX=0;entryY=0.5;entryDx=0;entryDy=0;" edge="1" parent="zU1JhyjE3Wgpx7H7E9p--1" source="zU1JhyjE3Wgpx7H7E9p--15" target="zU1JhyjE3Wgpx7H7E9p--54">
          <mxGeometry relative="1" as="geometry">
            <mxPoint x="247.81" y="407" as="sourcePoint" />
            <mxPoint x="363.81" y="431" as="targetPoint" />
          </mxGeometry>
        </mxCell>
        <mxCell id="zU1JhyjE3Wgpx7H7E9p--100" value="&lt;font style=&quot;font-size: 8px;&quot;&gt;&amp;lt;&amp;lt;include&amp;gt;&amp;gt;&lt;/font&gt;" style="edgeLabel;html=1;align=center;verticalAlign=middle;resizable=0;points=[];" vertex="1" connectable="0" parent="zU1JhyjE3Wgpx7H7E9p--99">
          <mxGeometry x="0.0573" relative="1" as="geometry">
            <mxPoint as="offset" />
          </mxGeometry>
        </mxCell>
        <mxCell id="zU1JhyjE3Wgpx7H7E9p--101" style="rounded=0;orthogonalLoop=1;jettySize=auto;html=1;entryX=1;entryY=0.5;entryDx=0;entryDy=0;dashed=1;exitX=0;exitY=0.5;exitDx=0;exitDy=0;" edge="1" parent="zU1JhyjE3Wgpx7H7E9p--1" source="zU1JhyjE3Wgpx7H7E9p--54" target="zU1JhyjE3Wgpx7H7E9p--30">
          <mxGeometry relative="1" as="geometry">
            <mxPoint x="363.81" y="431" as="sourcePoint" />
            <mxPoint x="247.81" y="455" as="targetPoint" />
          </mxGeometry>
        </mxCell>
        <mxCell id="zU1JhyjE3Wgpx7H7E9p--102" value="&lt;font style=&quot;font-size: 8px;&quot;&gt;&amp;lt;&amp;lt;include&amp;gt;&amp;gt;&lt;/font&gt;" style="edgeLabel;html=1;align=center;verticalAlign=middle;resizable=0;points=[];" vertex="1" connectable="0" parent="zU1JhyjE3Wgpx7H7E9p--101">
          <mxGeometry x="0.0266" relative="1" as="geometry">
            <mxPoint as="offset" />
          </mxGeometry>
        </mxCell>
        <mxCell id="zU1JhyjE3Wgpx7H7E9p--103" style="rounded=0;orthogonalLoop=1;jettySize=auto;html=1;exitX=1;exitY=0.5;exitDx=0;exitDy=0;dashed=1;entryX=0;entryY=0.5;entryDx=0;entryDy=0;" edge="1" parent="zU1JhyjE3Wgpx7H7E9p--1" source="zU1JhyjE3Wgpx7H7E9p--23" target="zU1JhyjE3Wgpx7H7E9p--55">
          <mxGeometry relative="1" as="geometry">
            <mxPoint x="245" y="526" as="sourcePoint" />
            <mxPoint x="361" y="550" as="targetPoint" />
          </mxGeometry>
        </mxCell>
        <mxCell id="zU1JhyjE3Wgpx7H7E9p--104" value="&lt;font style=&quot;font-size: 8px;&quot;&gt;&amp;lt;&amp;lt;include&amp;gt;&amp;gt;&lt;/font&gt;" style="edgeLabel;html=1;align=center;verticalAlign=middle;resizable=0;points=[];" vertex="1" connectable="0" parent="zU1JhyjE3Wgpx7H7E9p--103">
          <mxGeometry x="0.0573" relative="1" as="geometry">
            <mxPoint as="offset" />
          </mxGeometry>
        </mxCell>
        <mxCell id="zU1JhyjE3Wgpx7H7E9p--105" style="rounded=0;orthogonalLoop=1;jettySize=auto;html=1;entryX=1;entryY=0.5;entryDx=0;entryDy=0;dashed=1;exitX=0;exitY=0.5;exitDx=0;exitDy=0;" edge="1" parent="zU1JhyjE3Wgpx7H7E9p--1" source="zU1JhyjE3Wgpx7H7E9p--55" target="zU1JhyjE3Wgpx7H7E9p--31">
          <mxGeometry relative="1" as="geometry">
            <mxPoint x="355" y="550" as="sourcePoint" />
            <mxPoint x="245" y="574" as="targetPoint" />
          </mxGeometry>
        </mxCell>
        <mxCell id="zU1JhyjE3Wgpx7H7E9p--106" value="&lt;font style=&quot;font-size: 8px;&quot;&gt;&amp;lt;&amp;lt;include&amp;gt;&amp;gt;&lt;/font&gt;" style="edgeLabel;html=1;align=center;verticalAlign=middle;resizable=0;points=[];" vertex="1" connectable="0" parent="zU1JhyjE3Wgpx7H7E9p--105">
          <mxGeometry x="0.0266" relative="1" as="geometry">
            <mxPoint as="offset" />
          </mxGeometry>
        </mxCell>
        <mxCell id="zU1JhyjE3Wgpx7H7E9p--111" style="rounded=0;orthogonalLoop=1;jettySize=auto;html=1;exitX=1;exitY=0.5;exitDx=0;exitDy=0;dashed=1;entryX=0;entryY=0.5;entryDx=0;entryDy=0;" edge="1" parent="zU1JhyjE3Wgpx7H7E9p--1" source="zU1JhyjE3Wgpx7H7E9p--25" target="zU1JhyjE3Wgpx7H7E9p--57">
          <mxGeometry relative="1" as="geometry">
            <mxPoint x="242" y="752" as="sourcePoint" />
            <mxPoint x="358" y="776" as="targetPoint" />
          </mxGeometry>
        </mxCell>
        <mxCell id="zU1JhyjE3Wgpx7H7E9p--112" value="&lt;font style=&quot;font-size: 8px;&quot;&gt;&amp;lt;&amp;lt;include&amp;gt;&amp;gt;&lt;/font&gt;" style="edgeLabel;html=1;align=center;verticalAlign=middle;resizable=0;points=[];" vertex="1" connectable="0" parent="zU1JhyjE3Wgpx7H7E9p--111">
          <mxGeometry x="0.0573" relative="1" as="geometry">
            <mxPoint as="offset" />
          </mxGeometry>
        </mxCell>
        <mxCell id="zU1JhyjE3Wgpx7H7E9p--113" style="rounded=0;orthogonalLoop=1;jettySize=auto;html=1;entryX=1;entryY=0.5;entryDx=0;entryDy=0;dashed=1;exitX=0;exitY=0.5;exitDx=0;exitDy=0;" edge="1" parent="zU1JhyjE3Wgpx7H7E9p--1" source="zU1JhyjE3Wgpx7H7E9p--57" target="zU1JhyjE3Wgpx7H7E9p--33">
          <mxGeometry relative="1" as="geometry">
            <mxPoint x="358" y="776" as="sourcePoint" />
            <mxPoint x="242" y="800" as="targetPoint" />
          </mxGeometry>
        </mxCell>
        <mxCell id="zU1JhyjE3Wgpx7H7E9p--114" value="&lt;font style=&quot;font-size: 8px;&quot;&gt;&amp;lt;&amp;lt;include&amp;gt;&amp;gt;&lt;/font&gt;" style="edgeLabel;html=1;align=center;verticalAlign=middle;resizable=0;points=[];" vertex="1" connectable="0" parent="zU1JhyjE3Wgpx7H7E9p--113">
          <mxGeometry x="0.0266" relative="1" as="geometry">
            <mxPoint as="offset" />
          </mxGeometry>
        </mxCell>
        <mxCell id="zU1JhyjE3Wgpx7H7E9p--115" style="rounded=0;orthogonalLoop=1;jettySize=auto;html=1;exitX=1;exitY=0.5;exitDx=0;exitDy=0;dashed=1;entryX=0;entryY=0.5;entryDx=0;entryDy=0;" edge="1" parent="zU1JhyjE3Wgpx7H7E9p--1" source="zU1JhyjE3Wgpx7H7E9p--26" target="zU1JhyjE3Wgpx7H7E9p--58">
          <mxGeometry relative="1" as="geometry">
            <mxPoint x="247.81" y="863" as="sourcePoint" />
            <mxPoint x="363.81" y="887" as="targetPoint" />
          </mxGeometry>
        </mxCell>
        <mxCell id="zU1JhyjE3Wgpx7H7E9p--116" value="&lt;font style=&quot;font-size: 8px;&quot;&gt;&amp;lt;&amp;lt;include&amp;gt;&amp;gt;&lt;/font&gt;" style="edgeLabel;html=1;align=center;verticalAlign=middle;resizable=0;points=[];" vertex="1" connectable="0" parent="zU1JhyjE3Wgpx7H7E9p--115">
          <mxGeometry x="0.0573" relative="1" as="geometry">
            <mxPoint as="offset" />
          </mxGeometry>
        </mxCell>
        <mxCell id="zU1JhyjE3Wgpx7H7E9p--117" style="rounded=0;orthogonalLoop=1;jettySize=auto;html=1;entryX=1;entryY=0.5;entryDx=0;entryDy=0;dashed=1;exitX=0;exitY=0.5;exitDx=0;exitDy=0;" edge="1" parent="zU1JhyjE3Wgpx7H7E9p--1" source="zU1JhyjE3Wgpx7H7E9p--58" target="zU1JhyjE3Wgpx7H7E9p--34">
          <mxGeometry relative="1" as="geometry">
            <mxPoint x="363.81" y="887" as="sourcePoint" />
            <mxPoint x="247.81" y="911" as="targetPoint" />
          </mxGeometry>
        </mxCell>
        <mxCell id="zU1JhyjE3Wgpx7H7E9p--118" value="&lt;font style=&quot;font-size: 8px;&quot;&gt;&amp;lt;&amp;lt;include&amp;gt;&amp;gt;&lt;/font&gt;" style="edgeLabel;html=1;align=center;verticalAlign=middle;resizable=0;points=[];" vertex="1" connectable="0" parent="zU1JhyjE3Wgpx7H7E9p--117">
          <mxGeometry x="0.0266" relative="1" as="geometry">
            <mxPoint as="offset" />
          </mxGeometry>
        </mxCell>
        <mxCell id="zU1JhyjE3Wgpx7H7E9p--59" style="rounded=0;orthogonalLoop=1;jettySize=auto;html=1;exitX=0.5;exitY=0.5;exitDx=0;exitDy=0;exitPerimeter=0;entryX=0;entryY=0.5;entryDx=0;entryDy=0;endArrow=none;endFill=0;" edge="1" parent="1" source="zU1JhyjE3Wgpx7H7E9p--2" target="zU1JhyjE3Wgpx7H7E9p--12">
          <mxGeometry relative="1" as="geometry" />
        </mxCell>
        <mxCell id="zU1JhyjE3Wgpx7H7E9p--60" style="rounded=0;orthogonalLoop=1;jettySize=auto;html=1;exitX=0.5;exitY=0.5;exitDx=0;exitDy=0;exitPerimeter=0;entryX=0;entryY=0.5;entryDx=0;entryDy=0;endArrow=none;endFill=0;" edge="1" parent="1" source="zU1JhyjE3Wgpx7H7E9p--2" target="zU1JhyjE3Wgpx7H7E9p--27">
          <mxGeometry relative="1" as="geometry" />
        </mxCell>
        <mxCell id="zU1JhyjE3Wgpx7H7E9p--2" value="Data Analyst" style="shape=umlActor;verticalLabelPosition=bottom;verticalAlign=top;html=1;outlineConnect=0;" vertex="1" parent="1">
          <mxGeometry x="67" y="80" width="30" height="60" as="geometry" />
        </mxCell>
        <mxCell id="zU1JhyjE3Wgpx7H7E9p--67" style="rounded=0;orthogonalLoop=1;jettySize=auto;html=1;exitX=0.5;exitY=0.5;exitDx=0;exitDy=0;exitPerimeter=0;entryX=0;entryY=0.5;entryDx=0;entryDy=0;endArrow=none;endFill=0;" edge="1" parent="1" source="zU1JhyjE3Wgpx7H7E9p--3" target="zU1JhyjE3Wgpx7H7E9p--13">
          <mxGeometry relative="1" as="geometry" />
        </mxCell>
        <mxCell id="zU1JhyjE3Wgpx7H7E9p--3" value="Global Studies Researcher" style="shape=umlActor;verticalLabelPosition=bottom;verticalAlign=top;html=1;outlineConnect=0;" vertex="1" parent="1">
          <mxGeometry x="67" y="194" width="30" height="60" as="geometry" />
        </mxCell>
        <mxCell id="zU1JhyjE3Wgpx7H7E9p--4" value="Policy Analyst" style="shape=umlActor;verticalLabelPosition=bottom;verticalAlign=top;html=1;outlineConnect=0;" vertex="1" parent="1">
          <mxGeometry x="67" y="309" width="30" height="60" as="geometry" />
        </mxCell>
        <mxCell id="zU1JhyjE3Wgpx7H7E9p--5" value="Urban Planning Specialist" style="shape=umlActor;verticalLabelPosition=bottom;verticalAlign=top;html=1;outlineConnect=0;" vertex="1" parent="1">
          <mxGeometry x="67" y="426" width="30" height="60" as="geometry" />
        </mxCell>
        <mxCell id="zU1JhyjE3Wgpx7H7E9p--6" value="Human Settlement Researcher" style="shape=umlActor;verticalLabelPosition=bottom;verticalAlign=top;html=1;outlineConnect=0;" vertex="1" parent="1">
          <mxGeometry x="67" y="541" width="30" height="60" as="geometry" />
        </mxCell>
        <mxCell id="zU1JhyjE3Wgpx7H7E9p--7" value="Regional Services Manager" style="shape=umlActor;verticalLabelPosition=bottom;verticalAlign=top;html=1;outlineConnect=0;" vertex="1" parent="1">
          <mxGeometry x="67" y="656" width="30" height="60" as="geometry" />
        </mxCell>
        <mxCell id="zU1JhyjE3Wgpx7H7E9p--8" value="Demographic Analyst" style="shape=umlActor;verticalLabelPosition=bottom;verticalAlign=top;html=1;outlineConnect=0;" vertex="1" parent="1">
          <mxGeometry x="67" y="771" width="30" height="60" as="geometry" />
        </mxCell>
        <mxCell id="zU1JhyjE3Wgpx7H7E9p--9" value="Global Affairs Analyst" style="shape=umlActor;verticalLabelPosition=bottom;verticalAlign=top;html=1;outlineConnect=0;" vertex="1" parent="1">
          <mxGeometry x="67" y="886" width="30" height="60" as="geometry" />
        </mxCell>
        <mxCell id="zU1JhyjE3Wgpx7H7E9p--11" value="Database" style="rounded=0;whiteSpace=wrap;html=1;" vertex="1" parent="1">
          <mxGeometry x="719" y="498" width="120" height="60" as="geometry" />
        </mxCell>
        <mxCell id="zU1JhyjE3Wgpx7H7E9p--13" value="&lt;font style=&quot;font-size: 10px;&quot;&gt;Request pop of language speakers report&lt;/font&gt;" style="ellipse;whiteSpace=wrap;html=1;" vertex="1" parent="1">
          <mxGeometry x="238" y="194" width="125" height="40" as="geometry" />
        </mxCell>
        <mxCell id="zU1JhyjE3Wgpx7H7E9p--28" value="&lt;font style=&quot;font-size: 10px;&quot;&gt;View report&lt;/font&gt;" style="ellipse;whiteSpace=wrap;html=1;" vertex="1" parent="1">
          <mxGeometry x="238" y="242" width="125" height="40" as="geometry" />
        </mxCell>
        <mxCell id="zU1JhyjE3Wgpx7H7E9p--24" value="&lt;font style=&quot;font-size: 10px;&quot;&gt;Request top n pop cities report&lt;/font&gt;" style="ellipse;whiteSpace=wrap;html=1;" vertex="1" parent="1">
          <mxGeometry x="238" y="656" width="125" height="40" as="geometry" />
        </mxCell>
        <mxCell id="zU1JhyjE3Wgpx7H7E9p--32" value="&lt;font style=&quot;font-size: 10px;&quot;&gt;View report&lt;/font&gt;" style="ellipse;whiteSpace=wrap;html=1;" vertex="1" parent="1">
          <mxGeometry x="238" y="706" width="125" height="40" as="geometry" />
        </mxCell>
        <mxCell id="zU1JhyjE3Wgpx7H7E9p--66" style="rounded=0;orthogonalLoop=1;jettySize=auto;html=1;exitX=1;exitY=0.5;exitDx=0;exitDy=0;endArrow=none;endFill=0;" edge="1" parent="1" source="zU1JhyjE3Wgpx7H7E9p--35">
          <mxGeometry relative="1" as="geometry">
            <mxPoint x="720" y="500" as="targetPoint" />
          </mxGeometry>
        </mxCell>
        <mxCell id="zU1JhyjE3Wgpx7H7E9p--68" style="rounded=0;orthogonalLoop=1;jettySize=auto;html=1;exitX=0.5;exitY=0.5;exitDx=0;exitDy=0;exitPerimeter=0;entryX=0;entryY=0.5;entryDx=0;entryDy=0;endArrow=none;endFill=0;" edge="1" parent="1" source="zU1JhyjE3Wgpx7H7E9p--3" target="zU1JhyjE3Wgpx7H7E9p--28">
          <mxGeometry relative="1" as="geometry">
            <mxPoint x="92" y="234" as="sourcePoint" />
            <mxPoint x="248" y="224" as="targetPoint" />
          </mxGeometry>
        </mxCell>
        <mxCell id="zU1JhyjE3Wgpx7H7E9p--71" style="rounded=0;orthogonalLoop=1;jettySize=auto;html=1;entryX=1;entryY=0.5;entryDx=0;entryDy=0;dashed=1;" edge="1" parent="1" target="zU1JhyjE3Wgpx7H7E9p--28">
          <mxGeometry relative="1" as="geometry">
            <mxPoint x="480" y="240" as="sourcePoint" />
            <mxPoint x="363" y="261.5" as="targetPoint" />
          </mxGeometry>
        </mxCell>
        <mxCell id="zU1JhyjE3Wgpx7H7E9p--72" value="&lt;font style=&quot;font-size: 8px;&quot;&gt;&amp;lt;&amp;lt;include&amp;gt;&amp;gt;&lt;/font&gt;" style="edgeLabel;html=1;align=center;verticalAlign=middle;resizable=0;points=[];" vertex="1" connectable="0" parent="zU1JhyjE3Wgpx7H7E9p--71">
          <mxGeometry x="0.0266" relative="1" as="geometry">
            <mxPoint as="offset" />
          </mxGeometry>
        </mxCell>
        <mxCell id="zU1JhyjE3Wgpx7H7E9p--75" style="rounded=0;orthogonalLoop=1;jettySize=auto;html=1;exitX=0.5;exitY=0.5;exitDx=0;exitDy=0;exitPerimeter=0;entryX=0;entryY=0.5;entryDx=0;entryDy=0;endArrow=none;endFill=0;" edge="1" parent="1" source="zU1JhyjE3Wgpx7H7E9p--4" target="zU1JhyjE3Wgpx7H7E9p--29">
          <mxGeometry relative="1" as="geometry">
            <mxPoint x="85" y="343" as="sourcePoint" />
            <mxPoint x="241" y="381" as="targetPoint" />
          </mxGeometry>
        </mxCell>
        <mxCell id="zU1JhyjE3Wgpx7H7E9p--74" style="rounded=0;orthogonalLoop=1;jettySize=auto;html=1;exitX=0.5;exitY=0.5;exitDx=0;exitDy=0;exitPerimeter=0;entryX=0;entryY=0.5;entryDx=0;entryDy=0;endArrow=none;endFill=0;" edge="1" parent="1" source="zU1JhyjE3Wgpx7H7E9p--4" target="zU1JhyjE3Wgpx7H7E9p--14">
          <mxGeometry relative="1" as="geometry">
            <mxPoint x="85" y="343" as="sourcePoint" />
            <mxPoint x="241" y="333" as="targetPoint" />
          </mxGeometry>
        </mxCell>
        <mxCell id="zU1JhyjE3Wgpx7H7E9p--80" style="rounded=0;orthogonalLoop=1;jettySize=auto;html=1;exitX=1;exitY=0.5;exitDx=0;exitDy=0;entryX=0;entryY=0.25;entryDx=0;entryDy=0;endArrow=none;endFill=0;" edge="1" parent="1" source="zU1JhyjE3Wgpx7H7E9p--53" target="zU1JhyjE3Wgpx7H7E9p--11">
          <mxGeometry relative="1" as="geometry" />
        </mxCell>
        <mxCell id="zU1JhyjE3Wgpx7H7E9p--85" style="rounded=0;orthogonalLoop=1;jettySize=auto;html=1;exitX=0.5;exitY=0.5;exitDx=0;exitDy=0;exitPerimeter=0;entryX=0;entryY=0.5;entryDx=0;entryDy=0;endArrow=none;endFill=0;" edge="1" parent="1" source="zU1JhyjE3Wgpx7H7E9p--5" target="zU1JhyjE3Wgpx7H7E9p--15">
          <mxGeometry relative="1" as="geometry">
            <mxPoint x="92" y="453" as="sourcePoint" />
            <mxPoint x="249" y="443" as="targetPoint" />
          </mxGeometry>
        </mxCell>
        <mxCell id="zU1JhyjE3Wgpx7H7E9p--84" style="rounded=0;orthogonalLoop=1;jettySize=auto;html=1;exitX=0.5;exitY=0.5;exitDx=0;exitDy=0;exitPerimeter=0;entryX=0;entryY=0.5;entryDx=0;entryDy=0;endArrow=none;endFill=0;" edge="1" parent="1" source="zU1JhyjE3Wgpx7H7E9p--5" target="zU1JhyjE3Wgpx7H7E9p--30">
          <mxGeometry relative="1" as="geometry">
            <mxPoint x="92" y="453" as="sourcePoint" />
            <mxPoint x="249" y="491" as="targetPoint" />
          </mxGeometry>
        </mxCell>
        <mxCell id="zU1JhyjE3Wgpx7H7E9p--86" style="rounded=0;orthogonalLoop=1;jettySize=auto;html=1;exitX=0.5;exitY=0.5;exitDx=0;exitDy=0;exitPerimeter=0;entryX=0;entryY=0.5;entryDx=0;entryDy=0;endArrow=none;endFill=0;" edge="1" parent="1" source="zU1JhyjE3Wgpx7H7E9p--6" target="zU1JhyjE3Wgpx7H7E9p--31">
          <mxGeometry relative="1" as="geometry">
            <mxPoint x="90" y="568" as="sourcePoint" />
            <mxPoint x="247" y="606" as="targetPoint" />
          </mxGeometry>
        </mxCell>
        <mxCell id="zU1JhyjE3Wgpx7H7E9p--87" style="rounded=0;orthogonalLoop=1;jettySize=auto;html=1;exitX=0.5;exitY=0.5;exitDx=0;exitDy=0;exitPerimeter=0;entryX=0;entryY=0.5;entryDx=0;entryDy=0;endArrow=none;endFill=0;" edge="1" parent="1" source="zU1JhyjE3Wgpx7H7E9p--6" target="zU1JhyjE3Wgpx7H7E9p--23">
          <mxGeometry relative="1" as="geometry">
            <mxPoint x="90" y="568" as="sourcePoint" />
            <mxPoint x="247" y="558" as="targetPoint" />
          </mxGeometry>
        </mxCell>
        <mxCell id="zU1JhyjE3Wgpx7H7E9p--89" style="rounded=0;orthogonalLoop=1;jettySize=auto;html=1;exitX=0.5;exitY=0.5;exitDx=0;exitDy=0;exitPerimeter=0;entryX=0;entryY=0.5;entryDx=0;entryDy=0;endArrow=none;endFill=0;" edge="1" parent="1" source="zU1JhyjE3Wgpx7H7E9p--7" target="zU1JhyjE3Wgpx7H7E9p--24">
          <mxGeometry relative="1" as="geometry">
            <mxPoint x="90" y="691" as="sourcePoint" />
            <mxPoint x="247" y="681" as="targetPoint" />
          </mxGeometry>
        </mxCell>
        <mxCell id="zU1JhyjE3Wgpx7H7E9p--88" style="rounded=0;orthogonalLoop=1;jettySize=auto;html=1;exitX=0.5;exitY=0.5;exitDx=0;exitDy=0;exitPerimeter=0;entryX=0;entryY=0.5;entryDx=0;entryDy=0;endArrow=none;endFill=0;" edge="1" parent="1" source="zU1JhyjE3Wgpx7H7E9p--7" target="zU1JhyjE3Wgpx7H7E9p--32">
          <mxGeometry relative="1" as="geometry">
            <mxPoint x="90" y="691" as="sourcePoint" />
            <mxPoint x="247" y="729" as="targetPoint" />
          </mxGeometry>
        </mxCell>
        <mxCell id="zU1JhyjE3Wgpx7H7E9p--90" style="rounded=0;orthogonalLoop=1;jettySize=auto;html=1;entryX=0;entryY=0.5;entryDx=0;entryDy=0;endArrow=none;endFill=0;" edge="1" parent="1" target="zU1JhyjE3Wgpx7H7E9p--33">
          <mxGeometry relative="1" as="geometry">
            <mxPoint x="80" y="800" as="sourcePoint" />
            <mxPoint x="247" y="848" as="targetPoint" />
          </mxGeometry>
        </mxCell>
        <mxCell id="zU1JhyjE3Wgpx7H7E9p--91" style="rounded=0;orthogonalLoop=1;jettySize=auto;html=1;exitX=0.5;exitY=0.5;exitDx=0;exitDy=0;exitPerimeter=0;entryX=0;entryY=0.5;entryDx=0;entryDy=0;endArrow=none;endFill=0;" edge="1" parent="1" source="zU1JhyjE3Wgpx7H7E9p--8" target="zU1JhyjE3Wgpx7H7E9p--25">
          <mxGeometry relative="1" as="geometry">
            <mxPoint x="90" y="810" as="sourcePoint" />
            <mxPoint x="247" y="800" as="targetPoint" />
          </mxGeometry>
        </mxCell>
        <mxCell id="zU1JhyjE3Wgpx7H7E9p--92" style="rounded=0;orthogonalLoop=1;jettySize=auto;html=1;exitX=0.5;exitY=0.5;exitDx=0;exitDy=0;exitPerimeter=0;entryX=0;entryY=0.5;entryDx=0;entryDy=0;endArrow=none;endFill=0;" edge="1" parent="1" source="zU1JhyjE3Wgpx7H7E9p--9" target="zU1JhyjE3Wgpx7H7E9p--34">
          <mxGeometry relative="1" as="geometry">
            <mxPoint x="97" y="920" as="sourcePoint" />
            <mxPoint x="254" y="958" as="targetPoint" />
          </mxGeometry>
        </mxCell>
        <mxCell id="zU1JhyjE3Wgpx7H7E9p--93" style="rounded=0;orthogonalLoop=1;jettySize=auto;html=1;exitX=0.5;exitY=0.5;exitDx=0;exitDy=0;exitPerimeter=0;endArrow=none;endFill=0;entryX=0;entryY=0.5;entryDx=0;entryDy=0;" edge="1" parent="1" source="zU1JhyjE3Wgpx7H7E9p--9" target="zU1JhyjE3Wgpx7H7E9p--26">
          <mxGeometry relative="1" as="geometry">
            <mxPoint x="97" y="920" as="sourcePoint" />
            <mxPoint x="250" y="910" as="targetPoint" />
          </mxGeometry>
        </mxCell>
        <mxCell id="zU1JhyjE3Wgpx7H7E9p--107" style="rounded=0;orthogonalLoop=1;jettySize=auto;html=1;exitX=1;exitY=0.5;exitDx=0;exitDy=0;dashed=1;entryX=0;entryY=0.5;entryDx=0;entryDy=0;" edge="1" parent="1" source="zU1JhyjE3Wgpx7H7E9p--24" target="zU1JhyjE3Wgpx7H7E9p--56">
          <mxGeometry relative="1" as="geometry">
            <mxPoint x="371.19" y="681" as="sourcePoint" />
            <mxPoint x="487.19" y="705" as="targetPoint" />
          </mxGeometry>
        </mxCell>
        <mxCell id="zU1JhyjE3Wgpx7H7E9p--108" value="&lt;font style=&quot;font-size: 8px;&quot;&gt;&amp;lt;&amp;lt;include&amp;gt;&amp;gt;&lt;/font&gt;" style="edgeLabel;html=1;align=center;verticalAlign=middle;resizable=0;points=[];" vertex="1" connectable="0" parent="zU1JhyjE3Wgpx7H7E9p--107">
          <mxGeometry x="0.0573" relative="1" as="geometry">
            <mxPoint as="offset" />
          </mxGeometry>
        </mxCell>
        <mxCell id="zU1JhyjE3Wgpx7H7E9p--109" style="rounded=0;orthogonalLoop=1;jettySize=auto;html=1;entryX=1;entryY=0.5;entryDx=0;entryDy=0;dashed=1;exitX=0;exitY=0.5;exitDx=0;exitDy=0;" edge="1" parent="1" source="zU1JhyjE3Wgpx7H7E9p--56" target="zU1JhyjE3Wgpx7H7E9p--32">
          <mxGeometry relative="1" as="geometry">
            <mxPoint x="487.19" y="705" as="sourcePoint" />
            <mxPoint x="371.19" y="729" as="targetPoint" />
          </mxGeometry>
        </mxCell>
        <mxCell id="zU1JhyjE3Wgpx7H7E9p--110" value="&lt;font style=&quot;font-size: 8px;&quot;&gt;&amp;lt;&amp;lt;include&amp;gt;&amp;gt;&lt;/font&gt;" style="edgeLabel;html=1;align=center;verticalAlign=middle;resizable=0;points=[];" vertex="1" connectable="0" parent="zU1JhyjE3Wgpx7H7E9p--109">
          <mxGeometry x="0.0266" relative="1" as="geometry">
            <mxPoint as="offset" />
          </mxGeometry>
        </mxCell>
        <mxCell id="zU1JhyjE3Wgpx7H7E9p--119" style="rounded=0;orthogonalLoop=1;jettySize=auto;html=1;exitX=1;exitY=0.5;exitDx=0;exitDy=0;entryX=0;entryY=0.25;entryDx=0;entryDy=0;endArrow=none;endFill=0;" edge="1" parent="1" source="zU1JhyjE3Wgpx7H7E9p--54" target="zU1JhyjE3Wgpx7H7E9p--11">
          <mxGeometry relative="1" as="geometry" />
        </mxCell>
        <mxCell id="zU1JhyjE3Wgpx7H7E9p--120" style="rounded=0;orthogonalLoop=1;jettySize=auto;html=1;exitX=1;exitY=0.5;exitDx=0;exitDy=0;entryX=0;entryY=0.5;entryDx=0;entryDy=0;endArrow=none;endFill=0;" edge="1" parent="1" source="zU1JhyjE3Wgpx7H7E9p--55" target="zU1JhyjE3Wgpx7H7E9p--11">
          <mxGeometry relative="1" as="geometry" />
        </mxCell>
        <mxCell id="zU1JhyjE3Wgpx7H7E9p--121" style="rounded=0;orthogonalLoop=1;jettySize=auto;html=1;exitX=1;exitY=0.5;exitDx=0;exitDy=0;entryX=0;entryY=0.75;entryDx=0;entryDy=0;endArrow=none;endFill=0;" edge="1" parent="1" source="zU1JhyjE3Wgpx7H7E9p--56" target="zU1JhyjE3Wgpx7H7E9p--11">
          <mxGeometry relative="1" as="geometry" />
        </mxCell>
        <mxCell id="zU1JhyjE3Wgpx7H7E9p--122" style="rounded=0;orthogonalLoop=1;jettySize=auto;html=1;exitX=1;exitY=0.5;exitDx=0;exitDy=0;entryX=0;entryY=1;entryDx=0;entryDy=0;endArrow=none;endFill=0;" edge="1" parent="1" source="zU1JhyjE3Wgpx7H7E9p--57" target="zU1JhyjE3Wgpx7H7E9p--11">
          <mxGeometry relative="1" as="geometry" />
        </mxCell>
        <mxCell id="zU1JhyjE3Wgpx7H7E9p--123" style="rounded=0;orthogonalLoop=1;jettySize=auto;html=1;exitX=1;exitY=0.5;exitDx=0;exitDy=0;endArrow=none;endFill=0;entryX=0;entryY=1;entryDx=0;entryDy=0;" edge="1" parent="1" source="zU1JhyjE3Wgpx7H7E9p--58" target="zU1JhyjE3Wgpx7H7E9p--11">
          <mxGeometry relative="1" as="geometry">
            <mxPoint x="720" y="560" as="targetPoint" />
          </mxGeometry>
        </mxCell>
      </root>
    </mxGraphModel>
  </diagram>
</mxfile>
